<svg xmlns="http://www.w3.org/2000/svg"  viewBox="0 0 48 48" width="48px" height="48px"><g id="Layer_8"><path fill="#90a4ae" d="M3,11.1L17,17l-3,19c0,0-12.3,0.9-13-11.9C1,23.5,1.4,23,2,23h2c0,0-4.7-2.4-2.3-11.2 C1.8,11.2,2.5,10.8,3,11.1z"/><path fill="#90a4ae" d="M45,11.1L31,17l3,19c0,0,12.3,0.9,13-11.9c0-0.6-0.4-1.1-1-1.1h-2c0,0,4.7-2.4,2.3-11.2 C46.2,11.2,45.5,10.8,45,11.1z"/><path fill="#ffcc80" d="M41.9,14.1c-0.1-0.3-0.3-0.5-0.6-0.6l-10.1-2.8l-6.4-6.4C24.5,4.1,24.3,4,24,4v19L41.9,14.1z"/><path fill="#ffb74d" d="M41.7,35.1c0.2-0.3,0.3-0.6,0.2-1L38.9,24l3-9.2c0.1-0.3,0.1-0.5-0.1-0.7L24,23L41.7,35.1z"/><path fill="#fb8c00" d="M31.2,37.2l10-1.8c0.2,0,0.4-0.2,0.6-0.3L24,23v21c0.3,0,0.5-0.1,0.7-0.3L31.2,37.2z"/><path fill="#ffe0b2" d="M6.1,14.1c0.1-0.3,0.3-0.5,0.6-0.6l10.1-2.8l6.4-6.4C23.5,4.1,23.7,4,24,4v19L6.1,14.1z"/><path fill="#ffcc80" d="M6.3,35.1c-0.2-0.3-0.3-0.6-0.2-1L9.1,24l-3-9.2C6,14.5,6,14.3,6.1,14.1L24,23L6.3,35.1z"/><path fill="#ffb74d" d="M16.8,37.2l-10-1.8c-0.2,0-0.4-0.2-0.6-0.3L24,23v21c-0.3,0-0.5-0.1-0.7-0.3L16.8,37.2z"/><ellipse cx="24" cy="25.5" fill="#fb8c00" rx="11" ry="10.5"/><ellipse cx="24" cy="23.5" fill="#37474f" rx="11" ry="10.5"/><path fill="#ffb74d" d="M33,23c0-4.4-4-8-9-8s-9,3.6-9,8c0,3.1,2,5.8,5,7.2V31c0,0.6,0.4,1,1,1h6c0.6,0,1-0.4,1-1v-0.8 C31,28.8,33,26.1,33,23z"/><circle cx="20.5" cy="25.5" r="2.5" fill="#37474f"/><circle cx="27.5" cy="25.5" r="2.5" fill="#37474f"/><path fill="#37474f" d="M23,29c0,0,2,0,2,0l-1-1.9L23,29z"/><path fill="#37474f" d="M22.5,23c-0.1,0-0.3,0-0.4-0.1l-1-1c-0.2-0.2-0.2-0.5,0-0.7s0.5-0.2,0.7,0l1,1c0.2,0.2,0.2,0.5,0,0.7 C22.8,23,22.6,23,22.5,23z"/><path fill="#37474f" d="M25.5,23c-0.1,0-0.3,0-0.4-0.1c-0.2-0.2-0.2-0.5,0-0.7l1-1c0.2-0.2,0.5-0.2,0.7,0s0.2,0.5,0,0.7l-1,1 C25.8,23,25.6,23,25.5,23z"/><ellipse cx="19.8" cy="18.7" fill="#ffe0b2" rx="2" ry="1.5" transform="rotate(-36.017 19.845 18.692)"/></g></svg>