<svg xmlns="http://www.w3.org/2000/svg"  viewBox="0 0 100 100" width="100px" height="100px"><path fill="#c7ede6" d="M89.2,56.7c1.1-2.2,1.8-4.6,1.8-7.2c0-6.6-4.2-12.3-10-14.5c0,0,0,0,0,0c0-11.6-9.4-21-21-21 c-9.8,0-18,6.7-20.3,15.8c-1.5-0.5-3-0.8-4.7-0.8c-7.7,0-14,5.8-14.9,13.3C14.9,43.4,11,48,11,53.5C11,59.9,16.1,65,22.5,65 c0.2,0,0.4,0,0.5,0c0,0.2,0,0.3,0,0.5C23,76.8,32.2,86,43.5,86c6.4,0,12.2-3,15.9-7.6c2.2,2.2,5.2,3.6,8.6,3.6 c4.7,0,8.7-2.7,10.7-6.5c1.1,0.3,2.2,0.5,3.3,0.5c6.1,0,11-4.9,11-11C93,61.7,91.5,58.7,89.2,56.7z"/><path fill="#fdfcef" d="M35.5,36.5c0,0,1.6,0,3.5,0s3.5-1.6,3.5-3.5c0-1.8-1.3-3.2-3.1-3.5c0-0.2,0.1-0.4,0.1-0.5 c0-1.9-1.6-3.5-3.5-3.5c-1,0-1.9,0.5-2.6,1.2c-0.4-1.8-2-3.2-3.9-3.2c-2.2,0-4,1.8-4,4c0,0.2,0,0.4,0.1,0.6 c-0.4-0.3-1-0.6-1.6-0.6c-1.2,0-2.2,0.9-2.5,2.1c-0.2,0-0.4-0.1-0.5-0.1c-1.9,0-3.5,1.6-3.5,3.5s1.6,3.5,3.5,3.5s7.5,0,7.5,0V37 h7V36.5z"/><path fill="#472b29" d="M37.2,32c-0.1,0-0.2-0.1-0.2-0.2c0-1.2,1-2.2,2.2-2.2c0,0,0.7,0,1.2,0.1c0.1,0,0.2,0.2,0.2,0.3 c0,0.1-0.2,0.2-0.3,0.2C39.9,30,39.2,30,39.2,30c-0.9,0-1.7,0.8-1.7,1.7C37.5,31.9,37.4,32,37.2,32z"/><circle cx="30.5" cy="36.5" r=".5" fill="#472b29"/><path fill="#472b29" d="M39,37h-3.5c-0.3,0-0.5-0.2-0.5-0.5s0.2-0.5,0.5-0.5H39c1.7,0,3-1.3,3-3c0-1.5-1.1-2.8-2.6-3 c-0.1,0-0.3-0.1-0.3-0.2s-0.1-0.2-0.1-0.4c0-0.2,0-0.3,0-0.5c0-1.7-1.3-3-3-3c-0.8,0-1.6,0.4-2.2,1c-0.1,0.1-0.3,0.2-0.5,0.1 c-0.2,0-0.3-0.2-0.4-0.4c-0.3-1.6-1.8-2.8-3.4-2.8c-1.9,0-3.5,1.6-3.5,3.5c0,0.1,0,0.3,0,0.4c0,0.2-0.1,0.4-0.2,0.5 c-0.2,0.1-0.4,0.1-0.6,0C24.9,28.2,24.4,28,24,28c-1,0-1.8,0.7-2,1.6c0,0.3-0.3,0.4-0.6,0.4c-0.2,0-0.3,0-0.5,0 c-1.7,0-3,1.3-3,3s1.3,3,3,3h7.5c0.3,0,0.5,0.2,0.5,0.5S28.8,37,28.5,37H21c-2.2,0-4-1.8-4-4s1.8-4,4-4c0.1,0,0.1,0,0.2,0 c0.4-1.2,1.5-2,2.8-2c0.3,0,0.7,0.1,1,0.2c0.2-2.3,2.1-4.2,4.5-4.2c1.8,0,3.5,1.1,4.2,2.8c0.7-0.5,1.5-0.8,2.3-0.8 c2.2,0,4,1.8,4,4c0,0,0,0.1,0,0.1c1.7,0.4,3,2,3,3.9C43,35.2,41.2,37,39,37z"/><path fill="#472b29" d="M33.5,36c-0.2,0-0.8,0-1,0c-0.3,0-0.5,0.2-0.5,0.5s0.2,0.5,0.5,0.5c0.2,0,0.8,0,1,0c0.3,0,0.5-0.2,0.5-0.5 S33.8,36,33.5,36z"/><path fill="#fff" d="M17.5,51h-10C7.2,51,7,50.8,7,50.5S7.2,50,7.5,50h10c0.3,0,0.5,0.2,0.5,0.5S17.8,51,17.5,51z"/><path fill="#fff" d="M20.6,51.4h-1c-0.3,0-0.5-0.2-0.5-0.5s0.2-0.5,0.5-0.5h1c0.3,0,0.5,0.2,0.5,0.5S20.9,51.4,20.6,51.4z"/><path fill="#fff" d="M25.6,53.4h-9c-0.3,0-0.5-0.2-0.5-0.5s0.2-0.5,0.5-0.5h9c0.3,0,0.5,0.2,0.5,0.5S25.9,53.4,25.6,53.4z"/><path fill="#fff" d="M14.5,53h-1c-0.3,0-0.5-0.2-0.5-0.5s0.2-0.5,0.5-0.5h1c0.3,0,0.5,0.2,0.5,0.5S14.8,53,14.5,53z"/><path fill="#fff" d="M17.5,55h-2c-0.3,0-0.5-0.2-0.5-0.5s0.2-0.5,0.5-0.5h2c0.3,0,0.5,0.2,0.5,0.5S17.8,55,17.5,55z"/><path fill="#fff" d="M20.6,46.4c-0.2,0-0.8,0-1,0c-0.3,0-0.5,0.2-0.5,0.5s0.2,0.5,0.5,0.5c0.2,0,0.8,0,1,0c0.3,0,0.5-0.2,0.5-0.5 S20.9,46.4,20.6,46.4z"/><path fill="#fff" d="M20.6,48.4c-0.2,0-4.8,0-5,0c-0.3,0-0.5,0.2-0.5,0.5s0.2,0.5,0.5,0.5c0.2,0,4.8,0,5,0c0.3,0,0.5-0.2,0.5-0.5 S20.9,48.4,20.6,48.4z"/><path fill="#fff" d="M63.5,20h-10c-0.3,0-0.5-0.2-0.5-0.5s0.2-0.5,0.5-0.5h10c0.3,0,0.5,0.2,0.5,0.5S63.8,20,63.5,20z"/><path fill="#fff" d="M67.5,20h-2c-0.3,0-0.5-0.2-0.5-0.5s0.2-0.5,0.5-0.5h2c0.3,0,0.5,0.2,0.5,0.5S67.8,20,67.5,20z"/><path fill="#fff" d="M72.5,22h-10c-0.3,0-0.5-0.2-0.5-0.5s0.2-0.5,0.5-0.5h10c0.3,0,0.5,0.2,0.5,0.5S72.8,22,72.5,22z"/><path fill="#fff" d="M60.5,22h-1c-0.3,0-0.5-0.2-0.5-0.5s0.2-0.5,0.5-0.5h1c0.3,0,0.5,0.2,0.5,0.5S60.8,22,60.5,22z"/><path fill="#fff" d="M57.5,22h-2c-0.3,0-0.5-0.2-0.5-0.5s0.2-0.5,0.5-0.5h2c0.3,0,0.5,0.2,0.5,0.5S57.7,22,57.5,22z"/><path fill="#fff" d="M66.5,18h-5c-0.3,0-0.5-0.2-0.5-0.5s0.2-0.5,0.5-0.5h5c0.3,0,0.5,0.2,0.5,0.5S66.8,18,66.5,18z"/><path fill="#fff" d="M63.5,24h-2c-0.3,0-0.5-0.2-0.5-0.5s0.2-0.5,0.5-0.5h2c0.3,0,0.5,0.2,0.5,0.5S63.8,24,63.5,24z"/><polygon fill="#fbcd59" points="52.6,19 63.8,29.4 78.4,33.9 75,48.8 78.4,63.6 63.8,68.1 52.6,78.5 41.5,68.1 26.9,63.6 30.3,48.8 26.9,33.9 41.5,29.4"/><path fill="#f1bc19" d="M78,63l-11-6c0,0,7-9,1-17c3.9-2.8,10-6,10-6l-2.6,14.5L78,63z"/><path fill="#f1bc19" d="M27.8,63.6l9.8-6.4c0,0,6.4,7.8,15.4,6.8c0,5,0,15,0,15L42,67.6L27.8,63.6z"/><path fill="#fdfcef" d="M53,18.8V32c0,0-12,0-16,8c-4.2-2.5-9.9-6.1-9.9-6.1L41.5,29L53,18.8z"/><path fill="#fb8c00" d="M52.5,78.2L53,62c0,0,8.9,1.8,14-6c4.2,2.5,11.4,7.1,11.4,7.1L64,68L52.5,78.2z"/><path fill="#472b29" d="M64.3,35.3c3.9,3,6.4,7.5,6.4,12.5c0,9.1-8.1,16.4-18.2,16.4s-18.2-7.4-18.2-16.4s8.1-16.4,18.2-16.4 c3.6,0,7,1,9.8,2.6"/><polygon fill="#472b29" points="76.4,64.3 77,67.2 63.2,71.4 52.6,81.2 42.1,71.4 28.3,67.2 28.9,64.3 41.8,68.2 53,78.5 63.4,68.2"/><path fill="#f1bc19" d="M67,46.5c0,4.6-2.9,8.7-7.2,10.9v1.4c0,1.1-0.9,2-2,2H47.4c-1.1,0-2-0.9-2-2v-1.4c-4.3-2.2-7.2-6.2-7.2-10.9 c0-6.9,6.5-12.5,14.4-12.5S67,39.6,67,46.5z"/><ellipse cx="47.6" cy="39.6" fill="#fdfcef" rx="5.1" ry="3.6" transform="rotate(-29.343 47.576 39.634)"/><path fill="#472b29" d="M43,42.7c-0.1,0-0.3-0.1-0.3-0.2c-0.5-0.9-0.5-2,0-3.2c0.5-1.1,1.5-2.1,2.7-2.8c1.2-0.7,2.6-1.1,3.8-1 c1.3,0.1,2.3,0.6,2.8,1.6c0.6,1,0.5,2.2-0.2,3.5c-0.1,0.2-0.3,0.2-0.5,0.1c-0.2-0.1-0.2-0.3-0.1-0.5c0.6-1,0.6-2,0.2-2.7 c-0.4-0.7-1.2-1.1-2.2-1.2c-1.1-0.1-2.3,0.2-3.4,0.9c-1.1,0.6-2,1.5-2.4,2.5c-0.4,0.9-0.5,1.8-0.1,2.5c0.1,0.2,0,0.4-0.1,0.5 C43.1,42.6,43,42.7,43,42.7z"/><path fill="#472b29" d="M45.8,44c-0.9,0-1.7-0.2-2.3-0.6c-0.2-0.1-0.2-0.3-0.1-0.5c0.1-0.2,0.4-0.2,0.5-0.1c1.2,0.8,3.2,0.7,4.9-0.4 c0.7-0.4,1.2-0.8,1.7-1.4c0.1-0.2,0.4-0.2,0.5,0c0.2,0.1,0.2,0.4,0,0.5c-0.5,0.6-1.2,1.1-1.9,1.5C48.1,43.7,46.9,44,45.8,44z"/><path fill="#472b29" d="M51.5,46.9c-0.1,0-0.2,0-0.3-0.1l-1-1c-0.1-0.1-0.1-0.4,0-0.5c0.1-0.1,0.4-0.1,0.5,0l1,1 c0.1,0.1,0.1,0.4,0,0.5C51.7,46.8,51.6,46.9,51.5,46.9z"/><path fill="#472b29" d="M53.5,46.9c-0.1,0-0.2,0-0.3-0.1c-0.1-0.1-0.1-0.4,0-0.5l1-1c0.1-0.1,0.4-0.1,0.5,0c0.1,0.1,0.1,0.4,0,0.5 l-1,1C53.7,46.8,53.6,46.9,53.5,46.9z"/><polyline fill="#472b29" points="50.4,54.8 52.6,51.9 54.7,54.8 50.4,54.8"/><path fill="#472b29" d="M54.7,55.1h-4.3c-0.1,0-0.3-0.1-0.3-0.2s0-0.3,0-0.4l2.2-2.8c0.1-0.1,0.2-0.1,0.3-0.1c0.1,0,0.2,0.1,0.3,0.1 l2.1,2.8c0.1,0.1,0.1,0.3,0,0.4C55,55.1,54.8,55.1,54.7,55.1z M51.1,54.4h2.8l-1.4-1.8L51.1,54.4z"/><path fill="#472b29" d="M34.5,59.3c-0.1,0-0.2-0.1-0.3-0.2c-0.1-0.2-0.1-0.4,0.1-0.5l2.9-1.9c0.2-0.1,0.4-0.1,0.5,0.1 c0.1,0.2,0.1,0.4-0.1,0.5l-2.9,1.9C34.6,59.2,34.6,59.3,34.5,59.3z"/><path fill="#472b29" d="M27.4,63.8c-0.1,0-0.2-0.1-0.3-0.2c-0.1-0.2-0.1-0.4,0.1-0.5l5.8-3.7c0.2-0.1,0.4-0.1,0.5,0.1 c0.1,0.2,0.1,0.4-0.1,0.5l-5.8,3.7C27.5,63.8,27.4,63.8,27.4,63.8z"/><ellipse cx="58.8" cy="50" fill="#472b29" rx="3.8" ry="4" transform="rotate(-60 58.757 50.003)"/><path fill="#472b29" d="M58.9,54.2c-0.8,0-1.5-0.2-2.2-0.6c-2.1-1.2-2.8-3.8-1.7-5.8l0,0c1.1-2,3.8-2.6,5.8-1.4 c2.1,1.2,2.8,3.8,1.7,5.8C61.8,53.5,60.4,54.2,58.9,54.2z M55.7,48.2c-0.9,1.6-0.3,3.8,1.4,4.7c1.7,1,3.9,0.5,4.8-1.2 c0.9-1.6,0.3-3.8-1.4-4.7C58.7,46.1,56.6,46.6,55.7,48.2L55.7,48.2z"/><g><path fill="#472b29" d="M52.6,78.9c-0.2,0-0.4-0.2-0.4-0.4V64.3c0-0.2,0.2-0.4,0.4-0.4s0.4,0.2,0.4,0.4v14.3 C53,78.7,52.9,78.9,52.6,78.9z"/></g><g><path fill="#472b29" d="M78.5,63.8c-0.1,0-0.1,0-0.2-0.1l-10.8-6.7c-0.2-0.1-0.2-0.3-0.1-0.5c0.1-0.2,0.3-0.2,0.5-0.1l10.8,6.7 c0.2,0.1,0.2,0.3,0.1,0.5C78.8,63.7,78.6,63.8,78.5,63.8z"/></g><g><path fill="#472b29" d="M52.6,79.2c-0.2,0-0.3-0.1-0.5-0.2L41.1,68.7l-14.5-4.4c-0.4-0.1-0.6-0.5-0.5-0.8l3.4-14.7L26.2,34 c-0.1-0.4,0.1-0.7,0.5-0.8l14.5-4.4l11.1-10.3c0.3-0.3,0.7-0.3,1,0l11.1,10.3l14.5,4.4c0.4,0.1,0.6,0.5,0.5,0.8l-3.4,14.7l3.4,14.7 c0.1,0.4-0.1,0.7-0.5,0.8l-14.5,4.4L53.1,79.1C53,79.2,52.8,79.2,52.6,79.2z M27.7,63.2l14,4.3c0.1,0,0.2,0.1,0.3,0.2l10.7,10 l10.7-10c0.1-0.1,0.2-0.1,0.3-0.2l14-4.3l-3.3-14.3c0-0.1,0-0.2,0-0.3l3.3-14.3l-14-4.3c-0.1,0-0.2-0.1-0.3-0.2l-10.7-10l-10.7,10 c-0.1,0.1-0.2,0.1-0.3,0.2l-14,4.3L31,48.6c0,0.1,0,0.2,0,0.3L27.7,63.2z M41.5,29.4L41.5,29.4L41.5,29.4z"/></g><g><path fill="#472b29" d="M37.5,40.9c-0.1,0-0.1,0-0.2-0.1l-6.7-4c-0.2-0.1-0.2-0.3-0.1-0.5c0.1-0.2,0.3-0.2,0.5-0.1l6.7,4 c0.2,0.1,0.2,0.3,0.1,0.5C37.8,40.8,37.6,40.9,37.5,40.9z"/></g><g><path fill="#472b29" d="M29.6,36.1c-0.1,0-0.1,0-0.2-0.1l-3-1.8c-0.2-0.1-0.2-0.3-0.1-0.5c0.1-0.2,0.3-0.2,0.5-0.1l3,1.8 c0.2,0.1,0.2,0.3,0.1,0.5C29.9,36.1,29.8,36.1,29.6,36.1z"/></g><g><path fill="#472b29" d="M52.6,31.9c-0.2,0-0.4-0.2-0.4-0.4v-7c0-0.2,0.2-0.4,0.4-0.4s0.4,0.2,0.4,0.4v7C53,31.7,52.9,31.9,52.6,31.9z"/></g><g><path fill="#472b29" d="M52.6,23.5c-0.2,0-0.4-0.2-0.4-0.4V19c0-0.2,0.2-0.4,0.4-0.4S53,18.8,53,19v4.1C53,23.3,52.9,23.5,52.6,23.5z"/></g><g><path fill="#472b29" d="M68.4,40.3c-0.1,0-0.3-0.1-0.3-0.2c-0.1-0.2,0-0.4,0.1-0.5l10.2-5.9c0.2-0.1,0.4,0,0.5,0.1 c0.1,0.2,0,0.4-0.1,0.5l-10.2,5.9C68.5,40.3,68.4,40.3,68.4,40.3z"/></g><g><path fill="#472b29" d="M57.8,61.3H47.4c-1.4,0-2.5-1.1-2.5-2.5v-1.1c-4.5-2.3-7.2-6.6-7.2-11.2c0-7.2,6.7-13,14.9-13 s14.9,5.9,14.9,13c0,4.6-2.8,8.8-7.2,11.2v1.1C60.3,60.2,59.2,61.3,57.8,61.3z M52.6,34.5c-7.7,0-13.9,5.4-13.9,12 c0,4.3,2.7,8.3,6.9,10.4c0.2,0.1,0.3,0.3,0.3,0.4v1.4c0,0.8,0.7,1.5,1.5,1.5h10.4c0.8,0,1.5-0.7,1.5-1.5v-1.4 c0-0.2,0.1-0.4,0.3-0.4c4.3-2.1,6.9-6.1,6.9-10.4C66.5,39.9,60.2,34.5,52.6,34.5z"/></g><g><ellipse cx="45.8" cy="50" fill="#472b29" rx="4" ry="3.8" transform="rotate(-30 45.78 50.003)"/><path fill="#472b29" d="M45.6,54.2c-1.5,0-2.9-0.7-3.6-2c-1.1-2-0.4-4.6,1.7-5.8c2.1-1.2,4.7-0.6,5.8,1.4l0,0c1.1,2,0.4,4.6-1.7,5.8 C47.2,54,46.4,54.2,45.6,54.2z M45.9,46.5c-0.6,0-1.3,0.2-1.9,0.5c-1.7,1-2.3,3.1-1.4,4.7c0.9,1.6,3.1,2.2,4.8,1.2 c1.7-1,2.3-3.1,1.4-4.7l0,0C48.3,47.1,47.1,46.5,45.9,46.5z"/></g><g><path fill="#fdfcef" d="M76.5,76.5V77h3v-0.5c0,0,4.2,0,5.5,0c2.5,0,4.5-2,4.5-4.5c0-2.3-1.8-4.2-4.1-4.5c0-0.2,0.1-0.4,0.1-0.5 c0-2.5-2-4.5-4.5-4.5c-1.4,0-2.7,0.7-3.5,1.7c-0.1-2.6-2.3-4.7-5-4.7c-2.8,0-5,2.2-5,5c0,0.4,0.1,0.9,0.2,1.3 C67,65,66.1,64.5,65,64.5c-1.8,0-3.2,1.3-3.5,3.1c-0.2,0-0.4-0.1-0.5-0.1c-2.5,0-4.5,2-4.5,4.5s2,4.5,4.5,4.5s9.5,0,9.5,0H76.5z"/><path fill="#472b29" d="M72.5,59c-3,0-5.5,2.5-5.5,5.5c0,0,0,0,0,0c-0.6-0.4-1.3-0.5-2-0.5c-1.8,0-3.4,1.3-3.9,3c0,0-0.1,0-0.1,0 c-2.8,0-5,2.2-5,5s2.2,5,5,5h15.5c0.3,0,0.5-0.2,0.5-0.5S76.8,76,76.5,76H61c-2.2,0-4-1.8-4-4s1.8-4,4-4c0.1,0,0.2,0,0.3,0 l0.1,0c0,0,0,0,0.1,0c0.2,0,0.5-0.2,0.5-0.4c0.2-1.5,1.5-2.6,3-2.6c0.9,0,1.7,0.4,2.3,1.1c0.1,0.1,0.2,0.2,0.4,0.2 c0.1,0,0.2,0,0.2-0.1c0.2-0.1,0.3-0.3,0.3-0.6c-0.1-0.4-0.2-0.8-0.2-1.2c0-2.5,2-4.5,4.5-4.5c2.4,0,4.3,1.9,4.5,4.3 c0,0.2,0.2,0.4,0.3,0.4c0.1,0,0.1,0,0.2,0c0.2,0,0.3-0.1,0.4-0.2c0.8-1,1.9-1.5,3.1-1.5c2.2,0,4,1.8,4,4c0,0.1,0,0.2,0,0.3 l0,0.1c0,0.1,0,0.3,0.1,0.4s0.2,0.2,0.3,0.2c2.1,0.2,3.6,1.9,3.6,4c0,2.2-1.8,4-4,4h-5.5c-0.3,0-0.5,0.2-0.5,0.5 s0.2,0.5,0.5,0.5H85c2.8,0,5-2.2,5-5c0-2.4-1.7-4.4-4-4.9c0,0,0-0.1,0-0.1c0-2.8-2.2-5-5-5c-1.2,0-2.3,0.4-3.2,1.2 C77.2,60.8,75.1,59,72.5,59L72.5,59z"/><path fill="#472b29" d="M71,66c-1.4,0-2.6,1-2.9,2.3c-0.4-0.2-0.8-0.3-1.2-0.3c-1.2,0-2.2,0.9-2.4,2.1c-0.2,0-0.4-0.1-0.6-0.1 c-1.5,0-2.8,1.2-2.9,2.7c0,0.1,0.1,0.3,0.2,0.3c0,0,0,0,0,0c0.1,0,0.2-0.1,0.2-0.2c0.1-1.3,1.2-2.3,2.4-2.3c0.2,0,0.5,0,0.7,0.1 c0,0,0,0,0.1,0c0.1,0,0.1,0,0.2-0.1c0.1,0,0.1-0.1,0.1-0.2c0-1,0.8-1.9,1.9-1.9c0.4,0,0.9,0.2,1.2,0.5c0,0,0.1,0.1,0.2,0.1 c0,0,0.1,0,0.1,0c0.1,0,0.1-0.1,0.2-0.2c0.1-1.3,1.2-2.3,2.5-2.3c0.2,0,0.4,0,0.7,0.1c0,0,0,0,0.1,0c0.1,0,0.2-0.1,0.2-0.2 c0-0.1,0-0.3-0.2-0.3C71.5,66,71.3,66,71,66L71,66z"/><path fill="#472b29" d="M84.9,67.5c-1.3,0-2.5,0.9-2.9,2.2c0,0.1,0,0.3,0.2,0.3c0,0,0,0,0.1,0c0.1,0,0.2-0.1,0.2-0.2 c0.3-1.1,1.3-1.8,2.4-1.8c0.1,0,0.2,0,0.3,0c0,0,0,0,0,0c0.1,0,0.2-0.1,0.2-0.2c0-0.1-0.1-0.3-0.2-0.3 C85.2,67.5,85,67.5,84.9,67.5L84.9,67.5z"/></g></svg>